<?xml version="1.0" encoding="UTF-8"?>
<svg id="Layer_1" data-name="Layer 1" xmlns="http://www.w3.org/2000/svg" viewBox="0 0 160 160">
  <defs>
    <style>
      .cls-1 {
        fill: #f9f9f9;
      }
    </style>
  </defs>
  <path class="cls-1" d="M79.96,33.38c-3.5,0-6.99.37-10.35,1.17l2.05,9.09c2.71-.61,5.5-.93,8.3-.93,20.56,0,37.29,16.73,37.29,37.29s-16.73,37.29-37.29,37.29-37.29-16.73-37.29-37.29c0-9.09,3.36-17.85,9.32-24.62v10.63h9.32v-22.29l-22.24-5.31-2.15,8.81c.28.05,4.01.98,8.06,2.01-7.41,8.44-11.61,19.39-11.61,30.77,0,25.69,20.93,46.62,46.62,46.62s46.62-20.93,46.62-46.62-20.98-46.62-46.66-46.62h0Z"/>
</svg>