<?xml version="1.0" encoding="UTF-8"?>
<svg id="Layer_1" data-name="Layer 1" xmlns="http://www.w3.org/2000/svg" viewBox="0 0 160 160">
  <defs>
    <style>
      .cls-1 {
        fill: #f9f9f9;
      }
    </style>
  </defs>
  <path class="cls-1" d="M44.58,130.21c14.37-.02,26.02-11.67,26.04-26.04,0-.77,0-1.52-.11-2.27.27-5.23,4.73-9.25,9.96-8.98,5.03.26,8.97,4.4,8.99,9.44,0,.03,0,.05,0,.08,0,.57-.09,1.15-.09,1.74-.32,14.39,11.09,26.31,25.47,26.63,14.39.32,26.31-11.09,26.63-25.47,0-.38,0-.77,0-1.15v-50.39c-.01-13.56-10.99-24.55-24.55-24.58-1.41,0-2.55,1.14-2.55,2.55s1.14,2.55,2.55,2.55c10.75.01,19.46,8.72,19.47,19.47v34.96c-8.48-11.58-24.75-14.09-36.33-5.61-3.68,2.69-6.58,6.31-8.42,10.48-4.82-6.43-13.93-7.74-20.36-2.92-1.11.83-2.09,1.82-2.92,2.92-5.8-13.13-21.15-19.07-34.28-13.26-4.15,1.84-7.75,4.73-10.44,8.39v-34.96c.01-10.75,8.72-19.46,19.47-19.47,1.41,0,2.55-1.14,2.55-2.55s-1.14-2.55-2.55-2.55c-13.57.01-24.56,11.01-24.58,24.58v50.39c.02,14.38,11.68,26.03,26.06,26.04ZM115.44,83.21c11.57,0,20.95,9.38,20.95,20.95s-9.38,20.95-20.95,20.95-20.95-9.38-20.95-20.95c.01-11.57,9.39-20.94,20.95-20.95ZM44.58,83.21c11.57,0,20.95,9.38,20.95,20.95s-9.38,20.95-20.95,20.95-20.95-9.38-20.95-20.95c0-11.57,9.38-20.94,20.95-20.95Z"/>
</svg>