<?xml version="1.0" encoding="UTF-8"?>
<svg id="Layer_1" data-name="Layer 1" xmlns="http://www.w3.org/2000/svg" viewBox="0 0 160 160">
  <defs>
    <style>
      .cls-1 {
        fill: #f9f9f9;
      }
    </style>
  </defs>
  <path class="cls-1" d="M80,48.7c-17.27,0-31.3,14.03-31.3,31.3s14.03,31.3,31.3,31.3,31.3-14.03,31.3-31.3-14.03-31.3-31.3-31.3ZM80,102.75c-12.49,0-22.75-10.26-22.75-22.75s10.26-22.75,22.75-22.75,22.75,10.26,22.75,22.75-10.26,22.75-22.75,22.75Z"/>
  <rect class="cls-1" x="75.21" y="19.28" width="9.92" height="19.84"/>
  <rect class="cls-1" x="39.29" y="33.98" width="9.92" height="19.84" transform="translate(-18.08 44.15) rotate(-45)"/>
  <rect class="cls-1" x="19.28" y="74.87" width="19.84" height="9.92"/>
  <rect class="cls-1" x="33.98" y="110.79" width="19.84" height="9.92" transform="translate(-68.99 64.94) rotate(-45)"/>
  <rect class="cls-1" x="74.87" y="120.88" width="9.92" height="19.84"/>
  <rect class="cls-1" x="110.78" y="106.18" width="9.92" height="19.84" transform="translate(-48.19 115.85) rotate(-45)"/>
  <rect class="cls-1" x="120.88" y="75.21" width="19.84" height="9.92"/>
  <rect class="cls-1" x="106.18" y="39.3" width="19.84" height="9.92" transform="translate(2.71 95.06) rotate(-45)"/>
</svg>